<?xml version="1.0" encoding="UTF-8"?>
<svg width="270px" height="268px" viewBox="0 0 270 268" version="1.1" xmlns="http://www.w3.org/2000/svg" xmlns:xlink="http://www.w3.org/1999/xlink">
    <!-- Generator: Sketch 52.6 (67491) - http://www.bohemiancoding.com/sketch -->
    <title>Artwork</title>
    <desc>Created with Sketch.</desc>
    <defs>
        <path d="M55.852,23.154 L26.9,23.154 C23.138,23.154 20.061,26.241 20.061,30.015 C20.061,33.789 23.138,36.876 26.9,36.876 L41.634,36.876 L45.952,36.876 C49.714,36.876 52.791,39.964 52.791,43.738 C52.791,45.624 52.02,47.343 50.78,48.582 C49.545,49.827 47.831,50.6 45.952,50.6 L36.74,50.6 L31.654,50.6 L6.839,50.6 C3.077,50.6 0,53.688 0,57.461 C0,61.234 3.077,64.322 6.839,64.322 L24.604,64.322 C19.241,76.967 16.271,90.88 16.271,105.492 C16.271,110.793 16.663,116.003 17.415,121.094 C17.729,123.221 18.108,125.33 18.551,127.416 C31.454,125.436 45.141,123.843 59.43,122.681 L60.505,123.665 L61.517,122.517 C78.684,121.177 96.702,120.463 115.286,120.463 C154.77,120.463 191.718,123.683 223.309,129.282 C224.527,123.986 225.348,118.537 225.736,112.966 C225.913,110.496 226,108.003 226,105.492 C226,47.384 179.053,0.282 121.136,0.282 C96.452,0.282 73.765,8.839 55.852,23.154 Z" id="path-1"></path>
        <path d="M6.927,0.282 C3.117,0.282 0,3.433 0,7.282 C0,11.131 3.117,14.282 6.927,14.282 L11.072,14.282 C14.883,14.282 18,11.131 18,7.282 C18,3.433 14.883,0.282 11.072,0.282 L6.927,0.282 Z" id="path-3"></path>
        <path d="M43.365,2.655 L42.352,3.796 L41.277,2.818 C26.992,3.973 13.309,5.554 0.408,7.523 C10.459,54.805 52.559,90.282 102.968,90.282 C126.571,90.282 148.35,82.5 165.877,69.373 L184.534,69.373 C188.294,69.373 191.371,66.304 191.371,62.555 C191.371,60.683 190.6,58.973 189.361,57.742 C188.125,56.505 186.411,55.737 184.534,55.737 L176.42,55.737 C172.659,55.737 169.582,52.669 169.582,48.919 C169.582,47.046 170.353,45.337 171.592,44.105 C172.828,42.868 174.542,42.101 176.42,42.101 L220.093,42.101 C223.854,42.101 226.93,39.033 226.93,35.282 C226.93,33.409 226.159,31.7 224.92,30.469 C223.68,29.232 221.974,28.464 220.093,28.464 L198.678,28.464 C201.413,22.387 203.583,16.005 205.118,9.378 C173.534,3.815 136.595,0.614 97.12,0.614 C78.541,0.614 60.526,1.323 43.365,2.655 Z" id="path-5"></path>
        <path d="M0,0.426 L1.03,1.283 L2,0.282 C1.332,0.326 0.663,0.374 0,0.426 Z" id="path-7"></path>
        <path d="M0,7.282 C0,11.132 3.15,14.282 7,14.282 C10.85,14.282 14,11.132 14,7.282 C14,3.433 10.85,0.282 7,0.282 C3.15,0.282 0,3.433 0,7.282 Z" id="path-9"></path>
    </defs>
    <g id="Empty-States" stroke="none" stroke-width="1" fill="none" fill-rule="evenodd">
        <g id="No-trips" transform="translate(-53.000000, -137.000000)">
            <g id="Artwork" transform="translate(53.000000, 137.000000)">
                <g id="Group-3" transform="translate(25.000000, 57.718000)">
                    <mask id="mask-2" fill="white">
                        <use xlink:href="#path-1"></use>
                    </mask>
                    <g id="Clip-2"></g>
                    <polygon id="Fill-1" fill="#F1F2F7" mask="url(#mask-2)" points="-5 134.282 231 134.282 231 -4.718 -5 -4.718"></polygon>
                </g>
                <g id="Group-6" transform="translate(0.000000, 107.718000)">
                    <mask id="mask-4" fill="white">
                        <use xlink:href="#path-3"></use>
                    </mask>
                    <g id="Clip-5"></g>
                    <polygon id="Fill-4" fill="#F1F2F7" mask="url(#mask-4)" points="-5 19.282 23 19.282 23 -4.718 -5 -4.718"></polygon>
                </g>
                <g id="Group-9" transform="translate(43.000000, 177.718000)">
                    <mask id="mask-6" fill="white">
                        <use xlink:href="#path-5"></use>
                    </mask>
                    <g id="Clip-8"></g>
                    <polygon id="Fill-7" fill="#E8EBF2" mask="url(#mask-6)" points="-4.592 95.282 231.929 95.282 231.929 -4.386 -4.592 -4.386"></polygon>
                </g>
                <g id="Group-15" transform="translate(84.000000, 179.718000)">
                    <mask id="mask-8" fill="white">
                        <use xlink:href="#path-7"></use>
                    </mask>
                    <g id="Clip-14"></g>
                    <polygon id="Fill-13" fill="#F1F2F7" mask="url(#mask-8)" points="-5 6.282 7 6.282 7 -4.718 -5 -4.718"></polygon>
                </g>
                <g id="Group-24" transform="translate(241.000000, 232.718000)">
                    <mask id="mask-10" fill="white">
                        <use xlink:href="#path-9"></use>
                    </mask>
                    <g id="Clip-23"></g>
                    <polygon id="Fill-22" fill="#E1E3EF" mask="url(#mask-10)" points="-5 19.282 19 19.282 19 -4.718 -5 -4.718"></polygon>
                </g>
                <g id="Bee" transform="translate(123.000000, 0.000000)">
                    <path d="M40.478958,42 C5.83858869,44.3809912 -6.89289131,68.1884578 3.53694313,82.0660254 C10.8965755,91.8573525 23.3675109,105.090153 46.6143322,101.916042 C69.8601477,98.7411151 71.8187595,81.2729051 59.576178,78.8968047 C47.3335965,76.5215194 3.71902261,87.6031953 8.64824606,113.203945 C12.2063406,131.675579 43.047184,137 43.047184,137" id="Stroke-3" stroke="#D7DAE9" stroke-width="2" stroke-dasharray="7"></path>
                    <path d="M60.5007532,24 C60.5007532,24 65.4643755,11.0335841 65.9876581,5.98950365 C66.2629107,3.35382125 61.8951651,-3.9845056 56.7833299,2.80344674 C51.6714946,9.59139907 54.0035804,17.9142848 60.5007532,24" id="Fill-5" fill="#D8DBEA"></path>
                    <path d="M42.8873211,9.87867253 C37.0723719,7.91220262 34.4400369,9.44541711 33.3184681,12.5057295 C32.1958988,15.5670614 33.7626934,21.394092 42.5331414,22.7224021 C51.30459,24.0507123 60,23.9997411 60,23.9997411 C60,23.9997411 48.7022702,11.8451424 42.8873211,9.87867253" id="Fill-7" fill="#D8DBEA"></path>
                    <path d="M59.5161242,26.569203 C59.6480817,26.027186 59.8227021,25.5077121 60.0171658,25 C58.9436469,25.1695641 57.8512768,25.4077379 56.7519616,25.7302038 C55.5593833,26.0791334 54.4461778,26.5368584 53.3994472,27.0612329 C52.9450371,27.9198349 52.5769451,28.8372453 52.3378342,29.8222853 C50.864474,35.886407 54.342993,41.9985556 60.1878177,44 C60.8208168,43.8745422 61.4567925,43.7294816 62.0937603,43.5432551 C63.8736984,43.021821 65.5157261,42.3318029 67,41.5320093 C61.2920936,39.0277534 58.0070462,32.7783853 59.5161242,26.569203" id="Fill-9" fill="#D8DBEA"></path>
                    <path d="M51.1714477,29.7316705 C51.3111248,29.1325952 51.5006169,28.5597421 51.710621,28 C46.6539173,31.2394442 43.8222805,36.2670374 44.2891733,39.1988756 C41.0580403,40.587641 39,41.7575524 39,41.7575524 C39,41.7575524 41.4380012,41.5719802 44.9904894,40.8891958 C46.8932243,43.6697523 52.1677462,45.531525 58,44.8638687 C52.7166872,42.1317223 49.7346288,35.9140469 51.1714477,29.7316705" id="Fill-11" fill="#D8DBEA"></path>
                    <path d="M67.9169741,31.9300802 C66.5775002,31.6086316 65.7470263,30.2630805 66.0695304,28.9154688 C66.3910042,27.5771297 67.7449032,26.7477509 69.0833467,27.0691996 C70.4290028,27.3927088 71.2512337,28.7434113 70.9307903,30.0827807 C70.6072559,31.4293621 69.2636605,32.2525592 67.9169741,31.9300802 M73.7853927,30.1298394 C72.7073603,26.3959451 67.7508999,24.4676897 61.9039297,25.1280014 C61.6595283,25.7065688 61.451565,26.3169257 61.3031467,26.949081 C60.0011537,32.4913392 63.0086241,38.066295 68.1090591,40 C72.3651984,37.2924497 74.7549997,33.4586458 73.7853927,30.1298394" id="Fill-13" fill="#D8DBEA"></path>
                </g>
                <g id="Group-42" transform="translate(79.000000, 127.000000)">
                    <path d="M107,84 L27.7044512,84 C26.8429972,84 26.1148398,83.3522843 25.9954697,82.4832487 L24,70" id="Stroke-1" stroke="#BEC0D6" stroke-width="5"></path>
                    <path d="M-0.0004,1.9526 L21.9676,1.9526" id="Stroke-3" stroke="#00B09E" stroke-width="4"></path>
                    <path d="M111.094456,59.3144213 L24.9035659,72 C24.3438077,72 23.8888806,71.4326381 23.8888806,70.7308491 L15,13.2691509 C15,12.5693387 15.5676699,12 16.2698401,12 L119.73016,12 C120.43233,12 121,12.5693387 121,13.2691509 L112.111119,58.0452703 C112.111119,58.7470594 111.656192,59.3144213 111.094456,59.3144213 Z" id="Stroke-8" stroke="#BEC0D6" stroke-width="5"></path>
                    <g id="Group-13" transform="translate(40.000000, 25.000000)">
                        <path d="M1.9116,0.2828 L1.9116,27.3588" id="Fill-10" fill="#00B09E"></path>
                        <path d="M1.9116,0.2828 L1.9116,27.3588" id="Stroke-12" stroke="#00B09E" stroke-width="2"></path>
                    </g>
                    <g id="Group-17" transform="translate(58.000000, 25.000000)">
                        <path d="M1.2554,0.2828 L1.2554,27.3588" id="Fill-14" fill="#00B09E"></path>
                        <path d="M1.2554,0.2828 L1.2554,27.3588" id="Stroke-16" stroke="#00B09E" stroke-width="2"></path>
                    </g>
                    <g id="Group-21" transform="translate(74.000000, 25.000000)">
                        <path d="M1.5982,0.2828 L1.5982,27.3588" id="Fill-18" fill="#00B09E"></path>
                        <path d="M1.5982,0.2828 L1.5982,27.3588" id="Stroke-20" stroke="#00B09E" stroke-width="2"></path>
                    </g>
                    <g id="Group-25" transform="translate(91.000000, 25.000000)">
                        <path d="M1.942,0.2828 L1.942,27.3588" id="Fill-22" fill="#00B09E"></path>
                        <path d="M1.942,0.2828 L1.942,27.3588" id="Stroke-24" stroke="#00B09E" stroke-width="2"></path>
                    </g>
                    <path d="M57,89.5009879 C57,96.4044891 51.4025132,102 44.4990121,102 C37.5955109,102 32,96.4044891 32,89.5009879 C32,82.5974868 37.5955109,77 44.4990121,77 C51.4025132,77 57,82.5974868 57,89.5009879" id="Fill-26" fill="#FFFFFF"></path>
                    <path d="M57,89.5009879 C57,96.4044891 51.4025132,102 44.4990121,102 C37.5955109,102 32,96.4044891 32,89.5009879 C32,82.5974868 37.5955109,77 44.4990121,77 C51.4025132,77 57,82.5974868 57,89.5009879 Z" id="Stroke-28" stroke="#BEC0D6" stroke-width="5"></path>
                    <path d="M51,89.5009874 C51,93.0891691 48.0891691,96 44.4990126,96 C40.9088561,96 38,93.0891691 38,89.5009874 C38,85.9108309 40.9088561,83 44.4990126,83 C48.0891691,83 51,85.9108309 51,89.5009874" id="Fill-30" fill="#FFFFFF"></path>
                    <path d="M51,89.5009874 C51,93.0891691 48.0891691,96 44.4990126,96 C40.9088561,96 38,93.0891691 38,89.5009874 C38,85.9108309 40.9088561,83 44.4990126,83 C48.0891691,83 51,85.9108309 51,89.5009874 Z" id="Stroke-32" stroke="#00B09E" stroke-width="2"></path>
                    <path d="M109,89.5009879 C109,96.4044891 103.402513,102 96.4990121,102 C89.5955109,102 84,96.4044891 84,89.5009879 C84,82.5974868 89.5955109,77 96.4990121,77 C103.402513,77 109,82.5974868 109,89.5009879" id="Fill-34" fill="#FFFFFF"></path>
                    <path d="M109,89.5009879 C109,96.4044891 103.402513,102 96.4990121,102 C89.5955109,102 84,96.4044891 84,89.5009879 C84,82.5974868 89.5955109,77 96.4990121,77 C103.402513,77 109,82.5974868 109,89.5009879 Z" id="Stroke-36" stroke="#BEC0D6" stroke-width="5"></path>
                    <path d="M103,89.5009874 C103,93.0891691 100.089169,96 96.4990126,96 C92.9108309,96 90,93.0891691 90,89.5009874 C90,85.9108309 92.9108309,83 96.4990126,83 C100.089169,83 103,85.9108309 103,89.5009874" id="Fill-38" fill="#FFFFFF"></path>
                    <path d="M103,89.5009874 C103,93.0891691 100.089169,96 96.4990126,96 C92.9108309,96 90,93.0891691 90,89.5009874 C90,85.9108309 92.9108309,83 96.4990126,83 C100.089169,83 103,85.9108309 103,89.5009874 Z" id="Stroke-40" stroke="#00B09E" stroke-width="2"></path>
                </g>
            </g>
        </g>
    </g>
</svg>